<svg width="167" height="28" viewBox="0 0 167 28" fill="none" xmlns="http://www.w3.org/2000/svg">
<g clip-path="url(#clip0_1_56)">
<path d="M41.2615 27.0054C41.1031 27.0054 40.9393 26.9836 40.7809 26.9402C40.4477 26.8532 40.1909 27.3151 24.6072 17.6269C20.7509 15.2307 16.9109 12.8345 14.0378 11.0197C12.9235 10.3187 12.0277 9.75364 11.3067 9.29178C10.5529 12.2368 9.60243 17.7139 11.2356 22.5607C16.1407 20.197 19.3471 18.567 19.3962 18.5344L22.6572 20.6046C22.4168 20.7513 16.7634 24.1853 11.0226 26.7717C10.0995 27.1847 9.01251 26.7989 8.57007 25.8915C4.28222 17.1705 8.13855 5.9012 8.87049 5.10246C9.39487 4.53736 10.2087 4.34719 10.9298 4.62973C11.1319 4.70581 11.3121 4.81448 11.4705 4.95032C13.131 6.10768 34.5321 19.4309 40.5788 23.0932C43.1406 17.7682 41.7422 12.0086 40.7099 9.11247L32.4073 13.7039L29.4194 11.7478L40.6006 4.78731C41.0431 4.5102 41.5838 4.43412 42.0918 4.56997C42.5998 4.71124 43.0204 5.05356 43.2607 5.51541C43.5011 5.98271 49.0835 16.5402 42.8456 26.136C42.496 26.6739 41.8952 26.9945 41.267 26.9945V27.0054H41.2615ZM39.6993 24.6472C39.6775 24.6798 39.6556 24.7124 39.6393 24.745C39.6556 24.7178 39.672 24.6907 39.6884 24.6635C39.6884 24.6635 39.6939 24.6526 39.6993 24.6472ZM12.0932 6.08594C12.1096 6.17832 12.1151 6.27612 12.1205 6.37393C12.1205 6.27612 12.1096 6.17832 12.0932 6.08594ZM11.6453 5.1568C11.6453 5.1568 11.689 5.2057 11.7054 5.22743C11.6835 5.20026 11.6672 5.17853 11.6453 5.1568Z" fill="url(#paint0_linear_1_56)"/>
<path d="M62.0666 7.22395C59.2261 7.22395 56.8846 8.03916 55.1162 9.65119L54.4754 10.2335V2.23462H50.6367V27.2793H62.0666C64.7408 27.2793 67.0699 26.2864 69.0047 24.3188C70.9394 22.3758 71.913 19.9915 71.913 17.2333C71.913 14.475 70.9333 12.1091 69.0047 10.1661C67.0514 8.21691 64.7161 7.23008 62.0728 7.23008H62.0666V7.22395ZM66.1025 21.8916C64.8086 23.1052 63.1942 23.7243 61.3087 23.7243C59.4232 23.7243 57.7658 23.1052 56.4656 21.8916C55.1409 20.6964 54.4693 19.1272 54.4693 17.2455C54.4693 15.3638 55.1409 13.7947 56.4656 12.5749C57.7658 11.3736 59.3986 10.7667 61.3026 10.7667C63.2065 10.7667 64.7901 11.3736 66.0963 12.5749C67.4088 13.8069 68.0742 15.3822 68.0742 17.2455C68.0742 19.1089 67.4088 20.6841 66.0963 21.8916H66.1025Z" fill="#000C75"/>
<path d="M91.4885 10.1415C89.4737 8.20465 86.9782 7.21782 84.0637 7.21782C81.1492 7.21782 78.6599 8.17401 76.6142 10.1415C74.5501 12.103 73.5457 14.4199 73.5457 17.221C73.5457 20.0221 74.5747 22.3881 76.6081 24.325C78.6414 26.2803 81.1431 27.2671 84.0575 27.2671C86.972 27.2671 89.449 26.2741 91.4824 24.325C93.5034 22.382 94.5262 19.9915 94.5262 17.221C94.5262 14.4505 93.528 12.1152 91.4824 10.1415H91.4885ZM88.7651 21.8671C87.4773 23.0991 85.8937 23.7243 84.0575 23.7243C82.2214 23.7243 80.6193 23.0991 79.3254 21.8671C78.0314 20.6289 77.3783 19.0721 77.3783 17.2455C77.3783 15.419 78.0314 13.8376 79.3254 12.5994C80.6008 11.3797 82.1906 10.7606 84.0575 10.7606C85.9245 10.7606 87.4896 11.3797 88.7651 12.5994C90.059 13.8376 90.7122 15.4006 90.7122 17.2455C90.7122 19.0905 90.059 20.6351 88.7651 21.8671Z" fill="#000C75"/>
<path d="M111.613 7.74495H107.115L102.789 23.7611L98.556 7.74495H94.4462L100.078 26.7461H105.654L109.357 12.624L113.085 26.7461H118.643L124.275 7.74495H120.159L115.932 23.7611L111.613 7.74495Z" fill="#000C75"/>
<path d="M133.825 2.22849H129.993V7.74495H125.711V11.2632H129.993V19.5195C129.993 22.2226 130.948 24.3372 131.891 25.2321C132.377 25.698 132.963 26.0412 133.628 26.2619C134.392 26.5377 134.898 26.6787 135.181 26.6971C135.532 26.7216 135.883 26.74 136.278 26.74C137.412 26.74 138.397 26.7032 139.217 26.6358V23.4178C138.779 23.4362 138.305 23.4423 137.812 23.4423C135.212 23.4423 133.838 22.1123 133.838 19.5992V11.251H139.26V7.73269H133.838V2.2101L133.825 2.22849Z" fill="#000C75"/>
<path d="M145.12 7.74495H141.281V26.7461H145.12V7.74495Z" fill="#000C75"/>
<path d="M145.57 2.87821C145.57 3.48502 145.335 4.0244 144.886 4.47185C144.399 4.93769 143.844 5.16447 143.204 5.16447C142.563 5.16447 142.051 4.93156 141.595 4.47798C141.139 4.0244 140.905 3.48502 140.905 2.87821C140.905 2.23462 141.133 1.6891 141.602 1.20488C142.057 0.732917 142.581 0.5 143.204 0.5C143.826 0.5 144.399 0.732917 144.873 1.20488C145.342 1.6891 145.57 2.23462 145.57 2.87821Z" fill="#000C75"/>
<path d="M157.178 7.22395C154.325 7.22395 151.947 8.1924 150.105 10.1109C148.238 12.06 147.326 14.3953 147.326 17.2455C147.326 20.0957 148.287 22.6394 150.185 24.4905C152.113 26.3661 154.486 27.2732 157.449 27.2732C159.889 27.2732 162.255 26.7522 164.474 25.7286L162.336 22.7129C160.82 23.3994 159.23 23.7304 157.499 23.7304C154.159 23.7304 152.033 22.241 151.177 19.3111L151.035 18.8269H167V17.6623C167 14.3524 166.051 11.8455 164.098 9.98831C162.169 8.15562 159.84 7.22395 157.178 7.22395ZM151.091 15.6703L151.226 15.186C151.774 13.2614 153.167 11.7781 155.052 11.1284C156.987 10.4541 159.181 10.7422 160.789 11.8884C161.892 12.6485 162.674 13.7579 163.106 15.186L163.254 15.6764H151.091V15.6703Z" fill="#000C75"/>
</g>
<defs>
<linearGradient id="paint0_linear_1_56" x1="13.6635" y1="6.5876" x2="40.3164" y2="24.2408" gradientUnits="userSpaceOnUse">
<stop stop-color="#0019FF"/>
<stop offset="1" stop-color="#8F00FF"/>
</linearGradient>
<clipPath id="clip0_1_56">
<rect width="167" height="27" fill="white" transform="translate(0 0.5)"/>
</clipPath>
</defs>
</svg>
